<?xml version="1.0" encoding="UTF-8"?>
<svg id="Layer_1" data-name="Layer 1" xmlns="http://www.w3.org/2000/svg" viewBox="0 0 226.77 226.77">
  <defs>
    <style>
      .cls-1 {
        letter-spacing: -.01em;
      }

      .cls-2 {
        fill: #741102;
      }

      .cls-2, .cls-3, .cls-4, .cls-5, .cls-6 {
        stroke-miterlimit: 10;
      }

      .cls-2, .cls-3, .cls-5 {
        stroke-width: 2px;
      }

      .cls-2, .cls-4 {
        stroke: #741102;
      }

      .cls-7 {
        font-size: 10px;
        letter-spacing: 0em;
      }

      .cls-7, .cls-6 {
        fill: #283d53;
        font-family: GalanoGrotesque-Heavy, 'Galano Grotesque';
        font-weight: 800;
      }

      .cls-3 {
        stroke-linecap: round;
      }

      .cls-3, .cls-4, .cls-5 {
        fill: none;
      }

      .cls-3, .cls-5 {
        stroke: #c4661f;
      }

      .cls-8 {
        letter-spacing: 0em;
      }

      .cls-9 {
        letter-spacing: -.05em;
      }

      .cls-4 {
        stroke-width: 4px;
      }

      .cls-10 {
        letter-spacing: 0em;
      }

      .cls-6 {
        font-size: 18px;
        stroke: #1b3045;
        stroke-width: .5px;
      }
    </style>
  </defs>
  <polyline class="cls-3" points="144.03 129.05 144.03 138.41 76.25 138.41 76.25 72.64 144.03 72.64 144.03 80.14"/>
  <text class="cls-7" transform="translate(87.79 113.6) rotate(-90)"><tspan x="0" y="0">HOUSE</tspan></text>
  <text class="cls-7" transform="translate(97.49 113.6) rotate(-90)"><tspan x="0" y="0">OF</tspan></text>
  <polyline class="cls-4" points="110.55 89.08 110.55 111.29 147.09 111.29 147.09 89.08"/>
  <rect class="cls-2" x="116.78" y="96.14" width="6.86" height="6.86"/>
  <polyline class="cls-4" points="101.23 96.14 129.05 78.25 155.57 96.14"/>
  <line class="cls-5" x1="92.95" y1="73.04" x2="92.95" y2="93.24"/>
  <line class="cls-5" x1="77.12" y1="133.2" x2="108.98" y2="133.2"/>
  <circle class="cls-5" cx="111.13" cy="133.2" r="1.94"/>
  <circle class="cls-5" cx="144.03" cy="126.36" r="1.99"/>
  <circle class="cls-5" cx="92.95" cy="95.11" r="1.92"/>
  <text class="cls-6" transform="translate(80.43 129.05)"><tspan class="cls-1" x="0" y="0">B</tspan><tspan class="cls-10" x="11.74" y="0">AR</tspan><tspan class="cls-9" x="37.75" y="0">R</tspan><tspan class="cls-8" x="49.21" y="0">Y</tspan></text>
</svg>